<svg xmlns="http://www.w3.org/2000/svg" viewBox="0 0 256 256" role="img" aria-label="Noble crow mascot">
  <defs>
    <linearGradient id="bg" x1="0" y1="0" x2="1" y2="1">
      <stop offset="0" stop-color="#0a9396"/>
      <stop offset="1" stop-color="#11777f"/>
    </linearGradient>
    <linearGradient id="feather" x1="0" y1="0" x2="0" y2="1">
      <stop offset="0" stop-color="#2b3140"/>
      <stop offset="1" stop-color="#121722"/>
    </linearGradient>
  </defs>
  <circle cx="128" cy="128" r="120" fill="url(#bg)"/>
  <path d="M58 165c18-44 52-72 96-78 25-3 42 2 55 11-9 2-19 8-29 17 6 2 12 6 15 11-14-2-27 0-40 8-20 12-40 18-60 18-13 0-25 4-37 13z" fill="url(#feather)"/>
  <path d="M128 78c-9 0-17 7-18 16 0 8 7 15 16 16 9 0 16-7 17-16 0-9-6-16-15-16z" fill="#f4f1e8"/>
  <circle cx="125" cy="94" r="7" fill="#111"/>
  <path d="M141 103c17-2 30 1 39 8-9 8-22 14-39 15 4-6 5-15 0-23z" fill="#ee9b00"/>
  <path d="M86 172c28-3 50-14 67-29-5 16-2 30 10 43-31 4-57-2-77-14z" fill="#1d2432"/>
  <path d="M85 63l24 20c-16 5-28 14-35 28-5-21-1-37 11-48z" fill="#1d2432"/>
  <path d="M118 53l17 20c-9-1-18 1-26 6 1-12 5-20 9-26z" fill="#273044"/>
</svg>
